<?xml version="1.0" encoding="UTF-8"?>
<!-- Generator: Adobe Illustrator 16.0.4, SVG Export Plug-In . SVG Version: 6.00 Build 0)  -->
<!DOCTYPE svg PUBLIC "-//W3C//DTD SVG 1.1//EN" "http://www.w3.org/Graphics/SVG/1.1/DTD/svg11.dtd">
<svg version="1.1" id="Layer_1" xmlns="http://www.w3.org/2000/svg" xmlns:xlink="http://www.w3.org/1999/xlink" x="0px" y="0px" width="1000px" height="771.423px" viewBox="0 0 1000 771.423" enable-background="new 0 0 1000 771.423" xml:space="preserve">
<g>
	<path fill="#999999" d="M823.812,0H176.188C79.029,0,0,79.021,0,176.188v419.046c0,97.168,79.029,176.188,176.188,176.188h647.623   c97.167,0,176.188-79.021,176.188-176.188V176.188C1000,79.021,920.948,0,823.812,0z M176.188,47.608h647.623   c55.964,0,103.557,36.003,121.17,86.02L525.065,431.81l-0.243-0.335c-7.435,4.072-15.813,6.572-24.864,6.572   c-8.989,0-17.331-2.485-24.719-6.496l-0.175,0.259l-420-298.288C72.7,83.581,120.262,47.608,176.188,47.608z M47.615,585.354   V186.665l280.744,199.352L47.615,585.354z M823.812,723.8H176.188c-55.751,0-103.183-35.729-120.971-85.426l314.247-223.155   l78.151,55.476l0.115-0.167c15.256,9.424,33.029,15.142,52.251,15.142c19.275,0,37.117-5.733,52.396-15.218l0.183,0.244   l78.137-55.476l314.102,223.064C927.048,688.041,879.593,723.8,823.812,723.8z M952.377,585.231L671.839,386.017l280.538-199.215   V585.231z"/>
</g>
</svg>